<svg width="120" height="120" viewBox="0 0 120 120" fill="none" xmlns="http://www.w3.org/2000/svg">
<path d="M84 30.5821C71 44.2388 62 67 62 67C62 67 65 55.1642 38 30.5821C38 17.0058 47.0883 6 62 6C76.9117 6 84 17.0058 84 30.5821Z" fill="#EFAC91"/>
<path d="M38 88.9286C48.8333 75 60.5 49 60.5 49C60.5 49 60.5 63.8571 83 88.9286C83 102.775 72.9264 114 60.5 114C48.0736 114 38 102.775 38 88.9286Z" fill="#EFAC91"/>
<path d="M39 55C54 65.8333 79 77.5 79 77.5C79 77.5 66 77.5 39 100C24.0883 100 12 89.9264 12 77.5C12 65.0736 24.0883 55 39 55Z" fill="#EFAC91"/>
<path d="M48.3827 28.5C54.8731 47.2583 72.0237 67.5525 72.0237 67.5525C72.0237 67.5525 62.2654 58.4545 25.3827 68.3372C12.4688 60.8813 6.54416 46.9664 14 34.0525C21.4558 21.1386 35.4688 21.0441 48.3827 28.5Z" fill="#EFAC91"/>
<path d="M83 99C68 86 43 77 43 77C43 77 56 80 83 53C97.9117 53 110 62.0883 110 77C110 91.9117 97.9117 99 83 99Z" fill="#EFAC91"/>
<path d="M94.641 67.3372C75.1506 63.5788 49 68.2846 49 68.2846C49 68.2846 61.7583 64.3827 71.641 27.5C84.5549 20.0442 99.5679 21.8707 107.024 34.7846C114.48 47.6985 107.555 59.8813 94.641 67.3372Z" fill="#EFAC91"/>
<circle cx="60.5" cy="61.5" r="14.5" fill="#F8EDE6"/>
</svg>
