<svg width="134" height="129" viewBox="0 0 134 129" fill="none" xmlns="http://www.w3.org/2000/svg">
<g filter="url(#filter0_f_2_49)">
<path d="M73.5 43.5C73.5 49.5625 72.4596 54.9802 70.8356 58.8264C70.0224 60.7525 69.0924 62.2143 68.1362 63.1721C67.1859 64.1241 66.2964 64.5 65.5 64.5C64.7036 64.5 63.8141 64.1241 62.8638 63.1721C61.9076 62.2143 60.9776 60.7525 60.1644 58.8264C58.5404 54.9802 57.5 49.5625 57.5 43.5C57.5 37.4375 58.5404 32.0198 60.1644 28.1736C60.9776 26.2475 61.9076 24.7857 62.8638 23.8279C63.8141 22.8759 64.7036 22.5 65.5 22.5C66.2964 22.5 67.1859 22.8759 68.1362 23.8279C69.0924 24.7857 70.0224 26.2475 70.8356 28.1736C72.4596 32.0198 73.5 37.4375 73.5 43.5Z" stroke="#AFBBA2" stroke-width="3"/>
</g>
<g filter="url(#filter1_f_2_49)">
<path d="M59.6247 90.8558C56.6557 95.9983 53.1033 100.073 49.8176 102.522C48.1725 103.748 46.6542 104.522 45.3597 104.857C44.0742 105.189 43.1146 105.066 42.4157 104.663C41.7168 104.259 41.1306 103.489 40.7755 102.21C40.4179 100.922 40.3293 99.2199 40.5688 97.182C41.0471 93.1119 42.7993 87.9983 45.7683 82.8558C48.7373 77.7134 52.2897 73.6391 55.5754 71.1898C57.2204 69.9635 58.7387 69.1893 60.0332 68.8548C61.3187 68.5227 62.2784 68.6456 62.9772 69.049C63.6761 69.4525 64.2623 70.2222 64.6175 71.5015C64.9751 72.7898 65.0637 74.4918 64.8242 76.5297C64.3459 80.5998 62.5937 85.7134 59.6247 90.8558Z" stroke="#AFBBA2" stroke-width="3"/>
</g>
<g filter="url(#filter2_f_2_49)">
<path d="M48.9393 51.9479C55.085 54.1848 60.2276 57.1674 63.5798 60.1272C65.2596 61.6103 66.4291 63.0345 67.0758 64.297C67.7212 65.5572 67.7813 66.5149 67.5228 67.2252C67.2642 67.9354 66.6026 68.6305 65.2982 69.1809C63.9913 69.7324 62.1799 70.0716 59.9398 70.128C55.4693 70.2406 49.6127 69.2199 43.467 66.983C37.3212 64.7461 32.1787 61.7635 28.8265 58.8037C27.1467 57.3206 25.9771 55.8964 25.3305 54.6338C24.6851 53.3737 24.625 52.416 24.8835 51.7057C25.142 50.9955 25.8037 50.3004 27.1081 49.75C28.415 49.1985 30.2264 48.8593 32.4665 48.8029C36.937 48.6903 42.7936 49.711 48.9393 51.9479Z" stroke="#AFBBA2" stroke-width="3"/>
</g>
<g filter="url(#filter3_f_2_49)">
<path d="M71.619 91.3567C68.5679 86.0721 66.7423 80.8286 66.2133 76.6625C65.9483 74.5761 66.0184 72.8359 66.3648 71.5222C66.7092 70.216 67.2904 69.4455 67.9772 69.049C68.664 68.6525 69.6219 68.5344 70.9252 68.8892C72.2362 69.2461 73.7782 70.0555 75.4526 71.3281C78.7961 73.8693 82.4243 78.0721 85.4754 83.3567C88.5264 88.6413 90.3521 93.8849 90.8811 98.051C91.146 100.137 91.076 101.878 90.7295 103.191C90.3851 104.497 89.8039 105.268 89.1171 105.664C88.4304 106.061 87.4725 106.179 86.1691 105.824C84.8582 105.467 83.3161 104.658 81.6417 103.385C78.2982 100.844 74.67 96.6413 71.619 91.3567Z" stroke="#AFBBA2" stroke-width="3"/>
</g>
<g filter="url(#filter4_f_2_49)">
<path d="M91.6724 64.1364C86.2984 67.2391 80.973 69.1111 76.7465 69.6721C74.6295 69.9531 72.8653 69.8948 71.5354 69.5555C70.2121 69.2178 69.4411 68.6396 69.049 67.9604C68.6569 67.2813 68.5416 66.3245 68.9108 65.0096C69.2819 63.6882 70.1136 62.1312 71.4154 60.4384C74.0145 57.0586 78.2984 53.3827 83.6724 50.28C89.0355 47.1836 94.384 45.379 98.6366 44.8822C100.766 44.6335 102.548 44.7212 103.894 45.0837C105.238 45.4454 106.024 46.0412 106.419 46.726C106.809 47.4019 106.918 48.3367 106.543 49.6184C106.164 50.911 105.322 52.434 104.005 54.0957C101.375 57.4128 97.0575 61.0273 91.6724 64.1364Z" stroke="#AFBBA2" stroke-width="3"/>
</g>
<g filter="url(#filter5_f_2_49)">
<circle cx="65" cy="63" r="8" fill="#AFBBA2"/>
</g>
<defs>
<filter id="filter0_f_2_49" x="52" y="17" width="27" height="53" filterUnits="userSpaceOnUse" color-interpolation-filters="sRGB">
<feFlood flood-opacity="0" result="BackgroundImageFix"/>
<feBlend mode="normal" in="SourceGraphic" in2="BackgroundImageFix" result="shape"/>
<feGaussianBlur stdDeviation="2" result="effect1_foregroundBlur_2_49"/>
</filter>
<filter id="filter1_f_2_49" x="34.9346" y="63.1638" width="35.5237" height="47.3842" filterUnits="userSpaceOnUse" color-interpolation-filters="sRGB">
<feFlood flood-opacity="0" result="BackgroundImageFix"/>
<feBlend mode="normal" in="SourceGraphic" in2="BackgroundImageFix" result="shape"/>
<feGaussianBlur stdDeviation="2" result="effect1_foregroundBlur_2_49"/>
</filter>
<filter id="filter2_f_2_49" x="19.24" y="43.2945" width="53.9263" height="32.3419" filterUnits="userSpaceOnUse" color-interpolation-filters="sRGB">
<feFlood flood-opacity="0" result="BackgroundImageFix"/>
<feBlend mode="normal" in="SourceGraphic" in2="BackgroundImageFix" result="shape"/>
<feGaussianBlur stdDeviation="2" result="effect1_foregroundBlur_2_49"/>
</filter>
<filter id="filter3_f_2_49" x="60.5523" y="63.1782" width="35.9898" height="48.3571" filterUnits="userSpaceOnUse" color-interpolation-filters="sRGB">
<feFlood flood-opacity="0" result="BackgroundImageFix"/>
<feBlend mode="normal" in="SourceGraphic" in2="BackgroundImageFix" result="shape"/>
<feGaussianBlur stdDeviation="2" result="effect1_foregroundBlur_2_49"/>
</filter>
<filter id="filter4_f_2_49" x="63.1869" y="39.241" width="49.0874" height="36.11" filterUnits="userSpaceOnUse" color-interpolation-filters="sRGB">
<feFlood flood-opacity="0" result="BackgroundImageFix"/>
<feBlend mode="normal" in="SourceGraphic" in2="BackgroundImageFix" result="shape"/>
<feGaussianBlur stdDeviation="2" result="effect1_foregroundBlur_2_49"/>
</filter>
<filter id="filter5_f_2_49" x="53" y="51" width="24" height="24" filterUnits="userSpaceOnUse" color-interpolation-filters="sRGB">
<feFlood flood-opacity="0" result="BackgroundImageFix"/>
<feBlend mode="normal" in="SourceGraphic" in2="BackgroundImageFix" result="shape"/>
<feGaussianBlur stdDeviation="2" result="effect1_foregroundBlur_2_49"/>
</filter>
</defs>
</svg>
