<svg width="120" height="120" viewBox="0 0 120 120" fill="none" xmlns="http://www.w3.org/2000/svg">
<path d="M82 36.5821C69.8478 50.2388 61.4348 73 61.4348 73C61.4348 73 68.2391 61.1642 43 36.5821C43 23.0058 47.4956 12 61.4348 12C75.374 12 82 23.0058 82 36.5821Z" fill="#EFAC91"/>
<path d="M33.6227 60.348C51.598 61.8555 78.5216 59.1109 78.5216 59.1109C78.5216 59.1109 72.9337 66.7511 60.5311 98.597C47.7779 105.96 27.1235 102.419 21.2201 92.1939C15.3167 81.9689 20.8696 67.711 33.6227 60.348Z" fill="#EFAC91"/>
<path d="M52.3827 33.5C58.8731 52.2583 76.0237 72.5526 76.0237 72.5526C76.0237 72.5526 65.8827 57.1173 29 67C16.0861 59.5442 10.5442 51.9665 18 39.0526C25.4558 26.1387 39.4688 26.0442 52.3827 33.5Z" fill="#EFAC91"/>
<path d="M62.641 98.8371C56.1506 80.0788 39 59.7846 39 59.7846C39 59.7846 47.1173 74.8827 84 65C96.9139 72.4558 104.48 80.3707 97.0237 93.2846C89.5679 106.198 75.5549 106.293 62.641 98.8371Z" fill="#EFAC91"/>
<path d="M91.641 74.3372C72.1506 70.5788 46 75.2846 46 75.2846C46 75.2846 59.1173 78.6673 69 41.7846C81.9139 34.3288 96.5679 28.8707 104.024 41.7846C111.48 54.6985 104.555 66.8813 91.641 74.3372Z" fill="#EFAC91"/>
<circle cx="60.5" cy="61.5" r="14.5" fill="#F8EDE6"/>
</svg>
